<svg xmlns="http://www.w3.org/2000/svg" xmlns:xlink="http://www.w3.org/1999/xlink" width="180" zoomAndPan="magnify" viewBox="0 0 135 67.499998" height="90" preserveAspectRatio="xMidYMid meet" version="1.2"><defs/><g id="3e260c7501"><g style="fill:#000000;fill-opacity:1;"><g transform="translate(29.678246, 38.226219)"><path style="stroke:none" d="M 7.03125 0.234375 C 5.59375 0.234375 4.429688 0.078125 3.546875 -0.234375 C 2.671875 -0.546875 2.003906 -0.972656 1.546875 -1.515625 C 1.085938 -2.054688 0.773438 -2.675781 0.609375 -3.375 L 5.359375 -3.375 C 5.703125 -2.875 6.257812 -2.625 7.03125 -2.625 C 7.789062 -2.625 8.347656 -2.875 8.703125 -3.375 C 8.734375 -3.425781 8.75 -3.472656 8.75 -3.515625 C 8.75 -3.648438 8.570312 -3.75 8.21875 -3.8125 C 7.863281 -3.882812 7.335938 -3.9375 6.640625 -3.96875 C 5.753906 -4.007812 4.820312 -4.101562 3.84375 -4.25 C 1.675781 -4.582031 0.59375 -5.453125 0.59375 -6.859375 C 0.59375 -6.984375 0.597656 -7.113281 0.609375 -7.25 C 0.773438 -7.957031 1.085938 -8.582031 1.546875 -9.125 C 2.003906 -9.664062 2.671875 -10.085938 3.546875 -10.390625 C 4.429688 -10.703125 5.59375 -10.859375 7.03125 -10.859375 C 8.46875 -10.859375 9.625 -10.703125 10.5 -10.390625 C 11.382812 -10.085938 12.054688 -9.664062 12.515625 -9.125 C 12.972656 -8.582031 13.28125 -7.957031 13.4375 -7.25 L 8.703125 -7.25 C 8.347656 -7.75 7.789062 -8 7.03125 -8 C 6.257812 -8 5.703125 -7.75 5.359375 -7.25 C 5.328125 -7.207031 5.3125 -7.171875 5.3125 -7.140625 C 5.3125 -7.015625 5.476562 -6.921875 5.8125 -6.859375 C 6.15625 -6.804688 6.65625 -6.757812 7.3125 -6.71875 C 7.976562 -6.6875 8.679688 -6.625 9.421875 -6.53125 C 10.171875 -6.445312 10.867188 -6.289062 11.515625 -6.0625 C 12.171875 -5.84375 12.679688 -5.519531 13.046875 -5.09375 C 13.335938 -4.757812 13.484375 -4.335938 13.484375 -3.828125 C 13.484375 -3.691406 13.46875 -3.539062 13.4375 -3.375 C 13.28125 -2.675781 12.972656 -2.054688 12.515625 -1.515625 C 12.054688 -0.972656 11.382812 -0.546875 10.5 -0.234375 C 9.625 0.078125 8.46875 0.234375 7.03125 0.234375 Z M 7.03125 0.234375 "/></g></g><g style="fill:#000000;fill-opacity:1;"><g transform="translate(42.709249, 38.226219)"><path style="stroke:none" d="M 17.875 0 L 13.34375 0 L 12.34375 -1.75 L 5.640625 -1.75 L 4.640625 0 L 0.109375 0 L 6.921875 -10.640625 L 11.0625 -10.640625 Z M 10.84375 -4.375 L 9 -7.59375 L 7.140625 -4.375 Z M 10.84375 -4.375 "/></g></g><g style="fill:#000000;fill-opacity:1;"><g transform="translate(56.977584, 38.226219)"><path style="stroke:none" d="M 10.375 0 L 5.921875 0 L 5.921875 -5.046875 L 0.109375 -10.640625 L 5.0625 -10.640625 L 8.15625 -7.453125 L 11.234375 -10.640625 L 16.1875 -10.640625 L 10.375 -5.046875 Z M 10.375 0 "/></g></g><g style="fill:#000000;fill-opacity:1;"><g transform="translate(73.262902, 38.226219)"><path style="stroke:none" d="M 7.484375 0.234375 C 4.890625 0.234375 3.0625 -0.304688 2 -1.390625 C 1.113281 -2.296875 0.671875 -3.601562 0.671875 -5.3125 L 0.671875 -10.640625 L 5.125 -10.640625 L 5.125 -5.3125 C 5.125 -4.570312 5.253906 -3.984375 5.515625 -3.546875 C 5.867188 -2.929688 6.523438 -2.625 7.484375 -2.625 C 8.441406 -2.625 9.101562 -2.929688 9.46875 -3.546875 C 9.71875 -3.992188 9.84375 -4.582031 9.84375 -5.3125 L 9.84375 -10.640625 L 14.3125 -10.640625 L 14.3125 -5.25 C 14.3125 -3.582031 13.867188 -2.296875 12.984375 -1.390625 C 11.921875 -0.304688 10.085938 0.234375 7.484375 0.234375 Z M 7.484375 0.234375 "/></g></g><g style="fill:#000000;fill-opacity:1;"><g transform="translate(88.22879, 38.226219)"><path style="stroke:none" d="M 15.71875 0 L 11.5 0 C 11.300781 -0.269531 11.164062 -0.609375 11.09375 -1.015625 C 11.019531 -1.335938 10.910156 -1.65625 10.765625 -1.96875 C 10.628906 -2.28125 10.390625 -2.535156 10.046875 -2.734375 C 9.710938 -2.941406 9.210938 -3.050781 8.546875 -3.0625 L 5.65625 -3.0625 L 5.65625 0 L 1.1875 0 L 1.1875 -10.640625 L 8.453125 -10.640625 C 10.179688 -10.640625 11.578125 -10.507812 12.640625 -10.25 C 13.710938 -9.988281 14.492188 -9.578125 14.984375 -9.015625 C 15.472656 -8.460938 15.71875 -7.742188 15.71875 -6.859375 C 15.71875 -6.109375 15.546875 -5.476562 15.203125 -4.96875 C 14.867188 -4.457031 14.332031 -4.054688 13.59375 -3.765625 C 14.300781 -3.472656 14.757812 -3.117188 14.96875 -2.703125 C 15.1875 -2.296875 15.316406 -1.847656 15.359375 -1.359375 C 15.410156 -0.929688 15.53125 -0.476562 15.71875 0 Z M 5.65625 -5.703125 L 8.203125 -5.703125 C 8.910156 -5.703125 9.46875 -5.734375 9.875 -5.796875 C 10.289062 -5.859375 10.597656 -5.945312 10.796875 -6.0625 C 10.992188 -6.175781 11.117188 -6.300781 11.171875 -6.4375 C 11.222656 -6.570312 11.25 -6.710938 11.25 -6.859375 C 11.25 -6.992188 11.222656 -7.128906 11.171875 -7.265625 C 11.117188 -7.410156 10.992188 -7.535156 10.796875 -7.640625 C 10.597656 -7.753906 10.289062 -7.84375 9.875 -7.90625 C 9.46875 -7.976562 8.910156 -8.015625 8.203125 -8.015625 L 5.65625 -8.015625 Z M 5.65625 -5.703125 "/></g></g><g style="fill:#000000;fill-opacity:1;"><g transform="translate(104.528933, 38.226219)"><path style="stroke:none" d="M 14 0 L 1.1875 0 L 1.1875 -10.640625 L 13.421875 -10.640625 L 13.421875 -8.015625 L 5.65625 -8.015625 L 5.65625 -6.34375 L 12.21875 -6.34375 L 12.21875 -4.296875 L 5.65625 -4.296875 L 5.65625 -2.625 L 14 -2.625 Z M 14 0 "/></g></g><g style="fill:#000000;fill-opacity:1;"><g transform="translate(119.116783, 38.226219)"><path style="stroke:none" d="M 14 0 L 1.1875 0 L 1.1875 -10.640625 L 13.421875 -10.640625 L 13.421875 -8.015625 L 5.65625 -8.015625 L 5.65625 -6.34375 L 12.21875 -6.34375 L 12.21875 -4.296875 L 5.65625 -4.296875 L 5.65625 -2.625 L 14 -2.625 Z M 14 0 "/></g></g><path style=" stroke:none;fill-rule:nonzero;fill:#000000;fill-opacity:1;" d="M 10.101562 31.96875 C 10.984375 32.414062 11.828125 32.921875 12.660156 33.457031 C 15.007812 34.953125 17.726562 35.566406 20.421875 36.085938 C 20.332031 36.359375 20.332031 36.359375 20.179688 36.492188 C 19.25 37.125 18.25 37.347656 17.140625 37.453125 C 16.800781 37.476562 16.472656 37.46875 16.136719 37.453125 L 15.960938 37.445312 C 14.3125 37.371094 12.753906 36.851562 11.300781 36.085938 C 11.449219 36.472656 11.644531 36.777344 11.902344 37.105469 L 12.023438 37.261719 C 13.027344 38.527344 14.085938 39.457031 15.589844 40.097656 C 16.246094 40.339844 16.894531 40.527344 17.59375 40.554688 L 17.886719 40.5625 C 19.285156 40.589844 20.707031 40.386719 21.964844 39.738281 C 22.769531 39.292969 23.425781 38.734375 24.070312 38.089844 C 24.167969 37.996094 24.261719 37.902344 24.359375 37.808594 C 24.816406 37.363281 25.253906 36.902344 25.671875 36.417969 C 26.039062 35.992188 26.429688 35.664062 26.898438 35.355469 L 27.082031 35.355469 L 26.898438 35.082031 L 26.746094 35.160156 L 26.542969 35.261719 L 26.34375 35.367188 C 26.167969 35.445312 26.167969 35.445312 25.984375 35.445312 L 25.921875 35.597656 C 25.804688 35.8125 25.664062 35.957031 25.488281 36.125 C 25.25 36.363281 25.027344 36.625 24.804688 36.878906 C 23.617188 38.195312 22.230469 39.261719 20.539062 39.851562 C 19.273438 40.226562 17.984375 40.328125 16.679688 40.074219 C 15.496094 39.773438 14.394531 39.1875 13.492188 38.363281 C 13.644531 38.308594 13.644531 38.308594 13.855469 38.273438 C 14.070312 38.339844 14.070312 38.339844 14.300781 38.445312 C 14.640625 38.589844 14.945312 38.691406 15.316406 38.730469 C 15.222656 38.910156 15.222656 38.910156 15.132812 39.003906 C 16.238281 39.410156 17.503906 39.394531 18.65625 39.246094 C 19.925781 39.023438 21.222656 38.46875 22.21875 37.640625 C 22.484375 37.40625 22.730469 37.160156 22.976562 36.90625 C 23.203125 36.679688 23.425781 36.453125 23.652344 36.230469 C 24.226562 35.664062 24.777344 35.089844 25.257812 34.441406 L 24.800781 34.441406 C 24.9375 34.300781 24.9375 34.300781 25.164062 34.167969 C 25.832031 34.167969 26.390625 34.441406 26.988281 34.714844 L 27.175781 34.800781 C 27.375 34.894531 27.574219 34.984375 27.769531 35.082031 L 27.960938 35.167969 C 28.253906 35.3125 28.433594 35.429688 28.628906 35.695312 L 28.722656 35.902344 C 28.195312 36.664062 27.644531 37.390625 27.039062 38.09375 C 26.835938 38.328125 26.640625 38.570312 26.453125 38.820312 C 26.226562 39.117188 25.980469 39.378906 25.710938 39.640625 L 25.484375 39.921875 C 25.269531 40.171875 25.058594 40.351562 24.800781 40.554688 L 24.585938 40.765625 C 23.453125 41.898438 22.164062 42.613281 20.632812 43.050781 C 19.816406 43.261719 19.027344 43.324219 18.183594 43.324219 L 17.84375 43.324219 C 16.925781 43.308594 16.101562 43.1875 15.222656 42.925781 L 14.9375 42.84375 C 14.09375 42.585938 13.289062 42.207031 12.488281 41.828125 L 12.222656 41.707031 C 10.429688 40.789062 8.925781 39.40625 7.457031 38.050781 C 7.050781 37.683594 6.625 37.335938 6.195312 36.996094 L 5.925781 36.78125 C 4.46875 35.632812 2.929688 34.722656 1.269531 33.894531 L 1.269531 33.53125 C 2.039062 32.589844 3.242188 32.035156 4.351562 31.605469 C 6.277344 30.882812 8.257812 31.074219 10.101562 31.96875 "/><path style=" stroke:none;fill-rule:nonzero;fill:#000000;fill-opacity:1;" d="M 19.144531 20.304688 C 19.347656 20.320312 19.347656 20.320312 19.601562 20.398438 C 20.644531 21.484375 21.34375 22.960938 21.703125 24.410156 C 22.082031 26.148438 22.011719 28.070312 21.476562 29.765625 C 21.140625 30.761719 20.703125 31.726562 20.148438 32.617188 L 19.875 32.800781 C 19.597656 31.28125 19.394531 29.785156 19.328125 28.242188 L 19.144531 28.148438 L 19.132812 28.429688 C 19.085938 29.441406 18.96875 30.433594 18.820312 31.4375 L 18.757812 31.890625 C 18.703125 32.253906 18.652344 32.621094 18.597656 32.984375 C 17.539062 31.59375 17.0625 29.648438 16.824219 27.941406 C 16.796875 27.675781 16.785156 27.414062 16.773438 27.144531 L 16.761719 26.855469 C 16.714844 25.160156 17.117188 23.53125 17.914062 22.042969 C 18.191406 21.546875 18.503906 21.101562 18.871094 20.671875 C 18.964844 20.550781 19.054688 20.429688 19.144531 20.304688 M 7.929688 24.867188 C 9.1875 24.730469 10.527344 25.0625 11.6875 25.53125 C 12.75 26.011719 13.699219 26.558594 14.496094 27.421875 L 14.726562 27.652344 C 15.699219 28.625 16.378906 29.683594 16.867188 30.976562 L 16.96875 31.234375 C 17.191406 31.808594 17.324219 32.375 17.414062 32.984375 C 16.726562 32.644531 16.167969 32.203125 15.589844 31.707031 L 15.277344 31.441406 C 14.679688 30.9375 14.097656 30.421875 13.527344 29.886719 C 13.3125 29.703125 13.097656 29.5625 12.851562 29.425781 C 13.050781 29.785156 13.285156 30.066406 13.566406 30.367188 C 13.875 30.703125 14.164062 31.042969 14.433594 31.414062 C 14.640625 31.6875 14.859375 31.945312 15.082031 32.207031 L 15.214844 32.363281 C 15.511719 32.710938 15.8125 33.054688 16.125 33.394531 L 16.226562 33.53125 L 16.226562 33.710938 C 14.574219 33.402344 13.023438 32.808594 11.667969 31.796875 C 11.546875 31.714844 11.429688 31.632812 11.308594 31.550781 C 10.042969 30.597656 9.140625 29.144531 8.503906 27.71875 C 8.191406 26.945312 7.910156 26.136719 7.921875 25.292969 L 7.925781 25.050781 Z M 30.027344 24.855469 L 30.367188 24.855469 L 30.636719 24.867188 L 30.726562 24.957031 C 30.761719 26.140625 30.335938 27.386719 29.789062 28.417969 C 28.824219 30.164062 27.519531 31.539062 25.828125 32.589844 C 24.929688 33.09375 23.929688 33.527344 22.886719 33.53125 C 23.023438 33.226562 23.199219 32.972656 23.398438 32.703125 L 23.597656 32.433594 L 23.976562 31.921875 C 24.335938 31.429688 24.683594 30.929688 25.023438 30.425781 L 25.144531 30.242188 C 25.351562 29.933594 25.351562 29.933594 25.53125 29.609375 C 25.214844 29.742188 25.015625 29.921875 24.777344 30.164062 L 24.558594 30.390625 L 24.101562 30.859375 C 23.632812 31.339844 23.152344 31.769531 22.613281 32.164062 L 22.4375 32.289062 C 22.285156 32.398438 22.132812 32.507812 21.980469 32.613281 L 21.824219 32.722656 C 21.691406 32.8125 21.558594 32.898438 21.425781 32.984375 L 21.242188 32.984375 C 21.605469 31.105469 22.40625 29.355469 23.65625 27.902344 C 24.773438 26.65625 26.132812 25.796875 27.714844 25.261719 C 28.488281 25.015625 29.214844 24.851562 30.027344 24.855469 M 12.945312 20.945312 C 14.027344 21.34375 14.949219 21.886719 15.863281 22.585938 L 16.070312 22.730469 L 16.25 22.867188 L 16.40625 22.976562 L 16.5 23.132812 C 16.476562 23.59375 16.34375 23.992188 16.191406 24.421875 C 15.898438 25.308594 15.789062 26.222656 15.679688 27.144531 L 15.535156 27.039062 C 14.664062 26.382812 13.785156 25.738281 12.800781 25.253906 L 12.578125 25.140625 C 12.386719 24.757812 12.464844 24.261719 12.460938 23.839844 C 12.460938 23.65625 12.457031 23.472656 12.453125 23.289062 C 12.445312 22.480469 12.550781 21.789062 12.851562 21.035156 Z M 25.71875 21.058594 L 25.894531 21.128906 C 26.167969 21.875 26.183594 22.570312 26.179688 23.355469 L 26.179688 23.632812 C 26.179688 23.808594 26.179688 23.988281 26.171875 24.164062 C 26.171875 24.316406 26.171875 24.46875 26.179688 24.621094 C 26.175781 24.808594 26.175781 24.808594 26.078125 25.140625 C 25.808594 25.371094 25.503906 25.519531 25.1875 25.675781 C 25.011719 25.769531 24.835938 25.863281 24.664062 25.957031 L 24.402344 26.097656 C 23.964844 26.347656 23.578125 26.65625 23.1875 26.976562 C 22.976562 27.144531 22.976562 27.144531 22.792969 27.238281 L 22.804688 26.988281 C 22.828125 25.84375 22.722656 24.730469 22.214844 23.683594 C 22.15625 23.5 22.15625 23.5 22.167969 23.316406 C 22.355469 22.882812 22.789062 22.589844 23.160156 22.3125 C 25.03125 21.003906 25.03125 21.003906 25.71875 21.058594 "/><path style=" stroke:none;fill-rule:nonzero;fill:#000000;fill-opacity:1;" d="M 24.527344 34.535156 L 24.710938 34.625 L 23.257812 36.078125 C 23.148438 36.1875 23.035156 36.296875 22.925781 36.410156 C 22.761719 36.570312 22.601562 36.734375 22.441406 36.902344 C 21.644531 37.75 20.679688 38.230469 19.601562 38.636719 L 19.308594 38.753906 C 18.304688 39.097656 17.28125 39.039062 16.226562 39.003906 C 16.5 38.820312 16.5 38.820312 16.675781 38.789062 L 16.871094 38.777344 L 17.09375 38.761719 C 17.171875 38.757812 17.253906 38.75 17.332031 38.746094 C 18.742188 38.625 20.042969 38.246094 21.234375 37.460938 C 21.824219 37.042969 22.433594 36.605469 22.886719 36.039062 C 23.152344 35.707031 23.472656 35.449219 23.796875 35.171875 C 23.933594 35.050781 24.070312 34.933594 24.207031 34.8125 Z M 15.496094 38.820312 L 16.226562 38.820312 L 16.226562 38.910156 L 15.496094 38.910156 Z M 15.496094 38.820312 "/></g></svg>